<svg xmlns="http://www.w3.org/2000/svg" viewBox="0 0 156.595 310">
  <path d="M81.703,165.106h33.981V305a4.99926,4.99926,0,0,0,5,5H178.3a4.99927,4.99927,0,0,0,5-5V165.765h39.064a5.00072,5.00072,0,0,0,4.967-4.429l5.933-51.502a4.99889,4.99889,0,0,0-4.966-5.572H183.302V71.978c0-9.732,5.24-14.667,15.576-14.667h29.42a4.9999,4.9999,0,0,0,5-5V5.037a4.99926,4.99926,0,0,0-5-5H187.753C187.467.023,186.832,0,185.896,0c-7.035,0-31.488,1.381-50.804,19.151-21.402,19.692-18.427,43.27-17.716,47.358v37.752H81.703a4.99926,4.99926,0,0,0-5,5v50.844A5.00011,5.00011,0,0,0,81.703,165.106Z" transform="translate(-76.703)"/>
</svg>
