<svg xmlns="http://www.w3.org/2000/svg" viewBox="0 0 299.9996 261.20001">
  <path  class="svg-path" d="M5.299,144.645l69.126,25.8,26.756,86.047a8.13729,8.13729,0,0,0,12.924,3.891l38.532-31.412a11.49557,11.49557,0,0,1,14.013-.391l69.498,50.457a8.14549,8.14549,0,0,0,12.764-4.926L299.823,29.22a8.14909,8.14909,0,0,0-10.91-9.259L5.218,129.402A8.15269,8.15269,0,0,0,5.299,144.645Zm91.57,12.066L231.967,73.504a2.354,2.354,0,0,1,2.841,3.726L123.313,180.87a23.11232,23.11232,0,0,0-7.163,13.829l-3.798,28.146a3.49166,3.49166,0,0,1-6.819.494L90.926,172.014A13.60253,13.60253,0,0,1,96.869,156.711Z" transform="translate(-0.00012 -19.40054)"/>
</svg>
