<svg xmlns="http://www.w3.org/2000/svg" viewBox="0 0 14.171 14.171">
  <path class="svg-path" d="M13.268,0H.905A.90455.90455,0,0,0,0,.904V13.267a.90455.90455,0,0,0,.905.904H13.267a.90434.90434,0,0,0,.904-.904V.904A.90221.90221,0,0,0,13.268,0ZM11.755,8.635c.259.264.821.707.719,1.158-.094.414-.712.263-1.312.287a1.98662,1.98662,0,0,1-1.503-.287,4.566,4.566,0,0,1-.494-.551c-.169-.188-.382-.525-.672-.512-.521.026-.358.752-.543,1.247-2.896.456-4.059-1.333-5.085-3.069A26.30256,26.30256,0,0,1,1.65,4.261l2.048-.007s.657,1.195.831,1.503a7.4909,7.4909,0,0,0,.479.704c.141.194.364.574.608.543.397-.051.469-1.591.223-2.107-.098-.209-.333-.282-.576-.353.082-.518,2.297-.626,2.655-.224.52.584-.36,2.21.352,2.684,1-.524,1.854-2.718,1.854-2.718l2.398.015a7.68414,7.68414,0,0,1-.768,1.712c-.229.308-.989.994-.959,1.503C10.819,7.919,11.437,8.311,11.755,8.635Z"/>
</svg>
